<?xml version="1.0" encoding="UTF-8"?>
<svg xmlns="http://www.w3.org/2000/svg" width="1200" height="720" viewBox="0 0 1200 720" role="img" aria-label="boring receipts delta sheet rung 2 weight quant sweep">
  <defs>
    <pattern id="g" width="32" height="32" patternUnits="userSpaceOnUse">
      <rect width="32" height="32" fill="#f3ead7"/>
      <path d="M0 8h32M0 23h32M7 0v32M24 0v32" stroke="#d8c9aa" stroke-width="0.6" opacity="0.22"/>
    </pattern>
    <style>
      .mono{font-family:ui-monospace,SFMono-Regular,Menlo,Consolas,monospace;}
      .tag{font-size:13px;font-weight:700;letter-spacing:2.2px;fill:#a33a2b;}
      .title{font-size:40px;font-weight:800;letter-spacing:-1.5px;fill:#171717;}
      .sub{font-size:17px;fill:#5f594f;}
      .label{font-size:15px;fill:#171717;}
      .small{font-size:13px;fill:#5f594f;}
      .micro{font-size:11px;fill:#5f594f;letter-spacing:1px;}
    </style>
  </defs>
  <rect width="1200" height="720" fill="url(#g)"/>
  <rect x="28" y="28" width="1144" height="664" fill="none" stroke="#24221e" stroke-width="1.5"/>
  <text x="58" y="66" class="mono tag">BORING-RECEIPTS · RUNG 2 · WEIGHT-QUANT SWEEP</text>
  <text x="58" y="118" class="mono title">delta sheet</text>
  <text x="58" y="148" class="mono sub">Llama-3.1-8B · AYA-3090 · baseline Q4_K_M · llama.cpp b9286</text>

  <rect x="58" y="172" width="1084" height="44" fill="#f3ead7" stroke="#2f7d4f" stroke-width="1.6"/>
  <text x="78" y="200" class="mono label" fill="#2f7d4f">GATE: PASS</text>
  <text x="300" y="200" class="mono small">all quants PPL Δ &lt; 5% (Q4 +2.3% · Q5 +0.9%) — none broke the model · gate-v1</text>

  
    <text x="58" y="274" class="mono label">tg  decode  t/s</text>
    <line x1="470" y1="264" x2="470" y2="336" stroke="#24221e" stroke-width="1.4" stroke-dasharray="3 3"/>
    <text x="470" y="256" class="mono micro" text-anchor="middle">baseline 0</text>
    <circle cx="470" cy="279" r="4" fill="#171717"/><text x="478" y="283" class="mono small" text-anchor="start">Q4 131.9  0%</text><rect x="374.8076923076923" y="294" width="95.1923076923077" height="14" fill="#3a352c" opacity="0.9"/><text x="366.8076923076923" y="305" class="mono small" text-anchor="end">Q5 118.7  -10.0%</text><rect x="170" y="316" width="300" height="14" fill="#3a352c" opacity="0.9"/><text x="162" y="327" class="mono small" text-anchor="end">Q8 90.3  -31.5%</text>
    <rect x="1080" y="276" width="12" height="34" fill="#2f5f87" opacity="0.85"/><rect x="1098" y="284.88461538461536" width="12" height="25.115384615384617" fill="#2f5f87" opacity="0.85"/><rect x="1116" y="304" width="12" height="6" fill="#2f5f87" opacity="0.85"/>
  
    <text x="58" y="382" class="mono label">pp  prefill t/s</text>
    <line x1="470" y1="372" x2="470" y2="444" stroke="#24221e" stroke-width="1.4" stroke-dasharray="3 3"/>
    <text x="470" y="364" class="mono micro" text-anchor="middle">baseline 0</text>
    <circle cx="470" cy="387" r="4" fill="#171717"/><text x="478" y="391" class="mono small" text-anchor="start">Q4 4459  0%</text><rect x="446.10795797608984" y="402" width="23.892042023910154" height="14" fill="#3a352c" opacity="0.9"/><text x="438.10795797608984" y="413" class="mono small" text-anchor="end">Q5 4347  -2.5%</text><rect x="470" y="424" width="17.7057097141477" height="14" fill="#3a352c" opacity="0.9"/><text x="495.7057097141477" y="435" class="mono small" text-anchor="start">Q8 4542  +1.9%</text>
    <rect x="1080" y="395.9179487179487" width="12" height="22.08205128205128" fill="#2f5f87" opacity="0.85"/><rect x="1098" y="412" width="12" height="6" fill="#2f5f87" opacity="0.85"/><rect x="1116" y="384" width="12" height="34" fill="#2f5f87" opacity="0.85"/>
  
    <text x="58" y="490" class="mono label">VRAM peak  GiB</text>
    <line x1="470" y1="480" x2="470" y2="552" stroke="#24221e" stroke-width="1.4" stroke-dasharray="3 3"/>
    <text x="470" y="472" class="mono micro" text-anchor="middle">baseline 0</text>
    <circle cx="470" cy="495" r="4" fill="#171717"/><text x="478" y="499" class="mono small" text-anchor="start">Q4 6  0%</text><rect x="470" y="510" width="65.62500000000003" height="14" fill="#3a352c" opacity="0.9"/><text x="543.625" y="521" class="mono small" text-anchor="start">Q5 6.7  +11.7%</text><rect x="470" y="532" width="300" height="14" fill="#3a352c" opacity="0.9"/><text x="778" y="543" class="mono small" text-anchor="start">Q8 9.2  +53.3%</text>
    <rect x="1080" y="520" width="12" height="6" fill="#2f5f87" opacity="0.85"/><rect x="1098" y="513.875" width="12" height="12.125000000000004" fill="#2f5f87" opacity="0.85"/><rect x="1116" y="492" width="12" height="34" fill="#2f5f87" opacity="0.85"/>

  <line x1="58" y1="582" x2="1142" y2="582" stroke="#d8c9aa" stroke-width="1"/>
  <text x="58" y="608" class="mono small">decode (tg) collapses with bits — memory-bound. prefill (pp) is flat — compute-bound. the divergence is the thesis.</text>
  <text x="58" y="632" class="mono small">trade-off, sayable in full: Q4 is +31.5% faster decode &amp; −35% VRAM vs Q8, costing +2.3% PPL — within the gate.</text>
  <text x="58" y="658" class="mono micro">bars = delta vs baseline Q4 (shared speed scale) · sparkbars = shape · zero is a dead line · color marks series, never verdict</text>
  <text x="58" y="682" class="mono micro">reproduce: llama-bench -m {Q4,Q5,Q8} -ngl 99 -p 512 -n 128 -r 5 · gate: llama-perplexity -f wiki.test.raw · receipt: receipts/2026-05-22-3090-llama31-8b-quant-sweep.md</text>
</svg>