<?xml version="1.0" encoding="UTF-8"?>
<svg xmlns="http://www.w3.org/2000/svg" width="1180" height="596" viewBox="0 0 1180 596" role="img" aria-label="quant ladder · Qwen">
  <defs>
    <pattern id="g" width="32" height="32" patternUnits="userSpaceOnUse">
      <rect width="32" height="32" fill="#f1ece0"/>
      <path d="M0 8h32M0 23h32M7 0v32M24 0v32" stroke="#cdbe9f" stroke-width="0.6" opacity="0.22"/>
    </pattern>
    <style>
      .mono{font-family:ui-monospace,SFMono-Regular,Menlo,Consolas,monospace;}
      .tag{font-size:13px;font-weight:700;letter-spacing:2.2px;fill:#a33a2b;}
      .title{font-size:38px;font-weight:800;letter-spacing:-1.5px;fill:#161410;}
      .sub{font-size:15px;fill:#6e675a;}
      .pl{font-size:16px;font-weight:700;fill:#161410;}
      .un{font-size:11px;fill:#6e675a;}
      .lbl{font-size:13px;fill:#161410;}
      .val{font-size:13px;font-weight:700;fill:#161410;}
      .del{font-size:12px;fill:#6e675a;}
      .ax{font-size:11px;fill:#6e675a;}
      .leg{font-size:12px;fill:#6e675a;}
      .small{font-size:12px;fill:#6e675a;}
      .micro{font-size:10.5px;fill:#6e675a;}
    </style>
  </defs>
  <rect width="1180" height="596" fill="url(#g)"/>
  <rect x="28" y="28" width="1124" height="540" fill="none" stroke="#1c1a15" stroke-width="1.5"/>
  <text x="58" y="64" class="mono tag">BORING-RECEIPTS · R10 · QWEN QUANT LADDER</text>
  <text x="58" y="112" class="mono title">quant ladder · Qwen</text>
  <text x="58" y="140" class="mono sub">Qwen2.5-7B · AYA-3090 · Q4/Q5/Q8 · fa on · vs Llama R2b</text>
  <text x="58" y="190" class="mono pl">tg  decode</text>
      <text x="58" y="206" class="mono un">t/s</text>
      <text x="1090" y="190" class="mono un" text-anchor="end">↑ higher = faster</text><text x="138" y="232" class="mono lbl" text-anchor="end">Q4</text>
        <rect x="150" y="221" width="430.0" height="14" fill="#3a352c" opacity="0.9"/>
        <text x="640" y="232" class="mono val" text-anchor="end">144.0</text>
        <text x="720" y="232" class="mono del">baseline</text><text x="138" y="256" class="mono lbl" text-anchor="end">Q5</text>
        <rect x="150" y="245" width="395.4" height="14" fill="#3a352c" opacity="0.9"/>
        <text x="640" y="256" class="mono val" text-anchor="end">132.4</text>
        <text x="720" y="256" class="mono del">-8.1%</text><text x="138" y="280" class="mono lbl" text-anchor="end">Q8</text>
        <rect x="150" y="269" width="299.2" height="14" fill="#3a352c" opacity="0.9"/>
        <text x="640" y="280" class="mono val" text-anchor="end">100.2</text>
        <text x="720" y="280" class="mono del">-30.4%</text><text x="58" y="302" class="mono pl">VRAM peak</text>
      <text x="58" y="318" class="mono un">GiB</text>
      <text x="1090" y="302" class="mono un" text-anchor="end">↓ lower = leaner</text><text x="138" y="344" class="mono lbl" text-anchor="end">Q4</text>
        <rect x="150" y="333" width="268.8" height="14" fill="#3a352c" opacity="0.9"/>
        <text x="640" y="344" class="mono val" text-anchor="end">5.0</text>
        <text x="720" y="344" class="mono del">baseline</text><text x="138" y="368" class="mono lbl" text-anchor="end">Q5</text>
        <rect x="150" y="357" width="306.4" height="14" fill="#3a352c" opacity="0.9"/>
        <text x="640" y="368" class="mono val" text-anchor="end">5.7</text>
        <text x="720" y="368" class="mono del">+14.0%</text><text x="138" y="392" class="mono lbl" text-anchor="end">Q8</text>
        <rect x="150" y="381" width="430.0" height="14" fill="#3a352c" opacity="0.9"/>
        <text x="640" y="392" class="mono val" text-anchor="end">8.0</text>
        <text x="720" y="392" class="mono del">+60.0%</text><text x="58" y="414" class="mono pl">PPL</text>
      <text x="58" y="430" class="mono un">↓ lower = better (Q8 ref)</text>
      <text x="1090" y="414" class="mono un" text-anchor="end"></text><text x="138" y="456" class="mono lbl" text-anchor="end">Q4</text>
        <rect x="150" y="445" width="430.0" height="14" fill="#3a352c" opacity="0.9"/>
        <text x="640" y="456" class="mono val" text-anchor="end">8.02</text>
        <text x="720" y="456" class="mono del">+1.5%</text><text x="138" y="480" class="mono lbl" text-anchor="end">Q5</text>
        <rect x="150" y="469" width="425.7" height="14" fill="#3a352c" opacity="0.9"/>
        <text x="640" y="480" class="mono val" text-anchor="end">7.94</text>
        <text x="720" y="480" class="mono del">+0.5%</text><text x="138" y="504" class="mono lbl" text-anchor="end">Q8</text>
        <rect x="150" y="493" width="423.6" height="14" fill="#3a352c" opacity="0.9"/>
        <text x="640" y="504" class="mono val" text-anchor="end">7.90</text>
        <text x="720" y="504" class="mono del">ref</text>
  <text x="58" y="558" class="mono small">trade-off generalizes: decode −30.4% Q4→Q8 (Llama −31.5%), prefill flat, VRAM grows.</text><text x="58" y="578" class="mono micro">but Q4 quality cost is model-specific: +1.5% PPL here vs +2.3% on Llama (R2b).</text>
</svg>